<mxfile host="app.diagrams.net" agent="Mozilla/5.0 (Macintosh; Intel Mac OS X 10_15_7) AppleWebKit/537.36 (KHTML, like Gecko) Chrome/140.0.0.0 Safari/537.36" version="28.2.7">
  <diagram id="C5RBs43oDa-KdzZeNtuy" name="Page-1">
    <mxGraphModel dx="2404" dy="883" grid="1" gridSize="10" guides="1" tooltips="1" connect="1" arrows="1" fold="1" page="1" pageScale="1" pageWidth="827" pageHeight="1169" background="#ffffff" math="0" shadow="0">
      <root>
        <mxCell id="WIyWlLk6GJQsqaUBKTNV-0" />
        <mxCell id="WIyWlLk6GJQsqaUBKTNV-1" parent="WIyWlLk6GJQsqaUBKTNV-0" />
        <mxCell id="zkfFHV4jXpPFQw0GAbJ--0" value="Game Engine" style="swimlane;fontStyle=3;align=center;verticalAlign=top;childLayout=stackLayout;horizontal=1;startSize=26;horizontalStack=0;resizeParent=1;resizeLast=0;collapsible=1;marginBottom=0;rounded=0;shadow=0;strokeWidth=1;" parent="WIyWlLk6GJQsqaUBKTNV-1" vertex="1">
          <mxGeometry x="414" y="330" width="190" height="292" as="geometry">
            <mxRectangle x="230" y="140" width="160" height="26" as="alternateBounds" />
          </mxGeometry>
        </mxCell>
        <mxCell id="zkfFHV4jXpPFQw0GAbJ--1" value="- game board: Game Board" style="text;align=left;verticalAlign=top;spacingLeft=4;spacingRight=4;overflow=hidden;rotatable=0;points=[[0,0.5],[1,0.5]];portConstraint=eastwest;" parent="zkfFHV4jXpPFQw0GAbJ--0" vertex="1">
          <mxGeometry y="26" width="190" height="26" as="geometry" />
        </mxCell>
        <mxCell id="zkfFHV4jXpPFQw0GAbJ--2" value="- game state: Game State" style="text;align=left;verticalAlign=top;spacingLeft=4;spacingRight=4;overflow=hidden;rotatable=0;points=[[0,0.5],[1,0.5]];portConstraint=eastwest;rounded=0;shadow=0;html=0;" parent="zkfFHV4jXpPFQw0GAbJ--0" vertex="1">
          <mxGeometry y="52" width="190" height="26" as="geometry" />
        </mxCell>
        <mxCell id="zkfFHV4jXpPFQw0GAbJ--3" value="- score Manager: Score Manager" style="text;align=left;verticalAlign=top;spacingLeft=4;spacingRight=4;overflow=hidden;rotatable=0;points=[[0,0.5],[1,0.5]];portConstraint=eastwest;rounded=0;shadow=0;html=0;" parent="zkfFHV4jXpPFQw0GAbJ--0" vertex="1">
          <mxGeometry y="78" width="190" height="26" as="geometry" />
        </mxCell>
        <mxCell id="9S8VT6qx1uZMwdPPaOd9-127" value="- board renderer: Board Renderer" style="text;align=left;verticalAlign=top;spacingLeft=4;spacingRight=4;overflow=hidden;rotatable=0;points=[[0,0.5],[1,0.5]];portConstraint=eastwest;rounded=0;shadow=0;html=0;" vertex="1" parent="zkfFHV4jXpPFQw0GAbJ--0">
          <mxGeometry y="104" width="190" height="26" as="geometry" />
        </mxCell>
        <mxCell id="9S8VT6qx1uZMwdPPaOd9-128" value="- input handler: Input Handler" style="text;align=left;verticalAlign=top;spacingLeft=4;spacingRight=4;overflow=hidden;rotatable=0;points=[[0,0.5],[1,0.5]];portConstraint=eastwest;rounded=0;shadow=0;html=0;" vertex="1" parent="zkfFHV4jXpPFQw0GAbJ--0">
          <mxGeometry y="130" width="190" height="26" as="geometry" />
        </mxCell>
        <mxCell id="zkfFHV4jXpPFQw0GAbJ--4" value="" style="line;html=1;strokeWidth=1;align=left;verticalAlign=middle;spacingTop=-1;spacingLeft=3;spacingRight=3;rotatable=0;labelPosition=right;points=[];portConstraint=eastwest;" parent="zkfFHV4jXpPFQw0GAbJ--0" vertex="1">
          <mxGeometry y="156" width="190" height="8" as="geometry" />
        </mxCell>
        <mxCell id="zkfFHV4jXpPFQw0GAbJ--5" value="+ start new game(GameÂ &#xa;Settings)" style="text;align=left;verticalAlign=top;spacingLeft=4;spacingRight=4;overflow=hidden;rotatable=0;points=[[0,0.5],[1,0.5]];portConstraint=eastwest;" parent="zkfFHV4jXpPFQw0GAbJ--0" vertex="1">
          <mxGeometry y="164" width="190" height="38" as="geometry" />
        </mxCell>
        <mxCell id="9S8VT6qx1uZMwdPPaOd9-124" value="+ handle cell click(Coordinate)" style="text;align=left;verticalAlign=top;spacingLeft=4;spacingRight=4;overflow=hidden;rotatable=0;points=[[0,0.5],[1,0.5]];portConstraint=eastwest;" vertex="1" parent="zkfFHV4jXpPFQw0GAbJ--0">
          <mxGeometry y="202" width="190" height="30" as="geometry" />
        </mxCell>
        <mxCell id="9S8VT6qx1uZMwdPPaOd9-125" value="+ handle right click(Coordinate)" style="text;align=left;verticalAlign=top;spacingLeft=4;spacingRight=4;overflow=hidden;rotatable=0;points=[[0,0.5],[1,0.5]];portConstraint=eastwest;" vertex="1" parent="zkfFHV4jXpPFQw0GAbJ--0">
          <mxGeometry y="232" width="190" height="30" as="geometry" />
        </mxCell>
        <mxCell id="9S8VT6qx1uZMwdPPaOd9-126" value="+ check win condition()" style="text;align=left;verticalAlign=top;spacingLeft=4;spacingRight=4;overflow=hidden;rotatable=0;points=[[0,0.5],[1,0.5]];portConstraint=eastwest;" vertex="1" parent="zkfFHV4jXpPFQw0GAbJ--0">
          <mxGeometry y="262" width="190" height="30" as="geometry" />
        </mxCell>
        <mxCell id="zkfFHV4jXpPFQw0GAbJ--6" value="&lt;&lt;abstract&gt;&gt; Cell" style="swimlane;fontStyle=1;align=center;verticalAlign=top;childLayout=stackLayout;horizontal=1;startSize=26;horizontalStack=0;resizeParent=1;resizeLast=0;collapsible=1;marginBottom=0;rounded=0;shadow=0;strokeWidth=1;" parent="WIyWlLk6GJQsqaUBKTNV-1" vertex="1">
          <mxGeometry x="180" y="720" width="160" height="220" as="geometry">
            <mxRectangle x="130" y="380" width="160" height="26" as="alternateBounds" />
          </mxGeometry>
        </mxCell>
        <mxCell id="zkfFHV4jXpPFQw0GAbJ--7" value="# coordinate: Coordinate" style="text;align=left;verticalAlign=top;spacingLeft=4;spacingRight=4;overflow=hidden;rotatable=0;points=[[0,0.5],[1,0.5]];portConstraint=eastwest;" parent="zkfFHV4jXpPFQw0GAbJ--6" vertex="1">
          <mxGeometry y="26" width="160" height="24" as="geometry" />
        </mxCell>
        <mxCell id="zkfFHV4jXpPFQw0GAbJ--8" value="# is revealed : Boolean" style="text;align=left;verticalAlign=top;spacingLeft=4;spacingRight=4;overflow=hidden;rotatable=0;points=[[0,0.5],[1,0.5]];portConstraint=eastwest;rounded=0;shadow=0;html=0;" parent="zkfFHV4jXpPFQw0GAbJ--6" vertex="1">
          <mxGeometry y="50" width="160" height="30" as="geometry" />
        </mxCell>
        <mxCell id="9S8VT6qx1uZMwdPPaOd9-115" value="# is flagged : Boolean" style="text;align=left;verticalAlign=top;spacingLeft=4;spacingRight=4;overflow=hidden;rotatable=0;points=[[0,0.5],[1,0.5]];portConstraint=eastwest;rounded=0;shadow=0;html=0;" vertex="1" parent="zkfFHV4jXpPFQw0GAbJ--6">
          <mxGeometry y="80" width="160" height="30" as="geometry" />
        </mxCell>
        <mxCell id="zkfFHV4jXpPFQw0GAbJ--9" value="" style="line;html=1;strokeWidth=1;align=left;verticalAlign=middle;spacingTop=-1;spacingLeft=3;spacingRight=3;rotatable=0;labelPosition=right;points=[];portConstraint=eastwest;" parent="zkfFHV4jXpPFQw0GAbJ--6" vertex="1">
          <mxGeometry y="110" width="160" height="8" as="geometry" />
        </mxCell>
        <mxCell id="zkfFHV4jXpPFQw0GAbJ--11" value="+ reveal()" style="text;align=left;verticalAlign=top;spacingLeft=4;spacingRight=4;overflow=hidden;rotatable=0;points=[[0,0.5],[1,0.5]];portConstraint=eastwest;" parent="zkfFHV4jXpPFQw0GAbJ--6" vertex="1">
          <mxGeometry y="118" width="160" height="28" as="geometry" />
        </mxCell>
        <mxCell id="9S8VT6qx1uZMwdPPaOd9-116" value="+ toggle flag()" style="text;align=left;verticalAlign=top;spacingLeft=4;spacingRight=4;overflow=hidden;rotatable=0;points=[[0,0.5],[1,0.5]];portConstraint=eastwest;" vertex="1" parent="zkfFHV4jXpPFQw0GAbJ--6">
          <mxGeometry y="146" width="160" height="28" as="geometry" />
        </mxCell>
        <mxCell id="9S8VT6qx1uZMwdPPaOd9-117" value="+ calculate mines nearby&#xa;(Game Board)" style="text;align=left;verticalAlign=top;spacingLeft=4;spacingRight=4;overflow=hidden;rotatable=0;points=[[0,0.5],[1,0.5]];portConstraint=eastwest;" vertex="1" parent="zkfFHV4jXpPFQw0GAbJ--6">
          <mxGeometry y="174" width="160" height="46" as="geometry" />
        </mxCell>
        <mxCell id="zkfFHV4jXpPFQw0GAbJ--13" value="&lt;abstract&gt;&gt; Empty Cell" style="swimlane;fontStyle=1;align=center;verticalAlign=top;childLayout=stackLayout;horizontal=1;startSize=26;horizontalStack=0;resizeParent=1;resizeLast=0;collapsible=1;marginBottom=0;rounded=0;shadow=0;strokeWidth=1;" parent="WIyWlLk6GJQsqaUBKTNV-1" vertex="1">
          <mxGeometry x="270" y="1053" width="160" height="116" as="geometry">
            <mxRectangle x="340" y="380" width="170" height="26" as="alternateBounds" />
          </mxGeometry>
        </mxCell>
        <mxCell id="zkfFHV4jXpPFQw0GAbJ--14" value="# nearby mines : int" style="text;align=left;verticalAlign=top;spacingLeft=4;spacingRight=4;overflow=hidden;rotatable=0;points=[[0,0.5],[1,0.5]];portConstraint=eastwest;" parent="zkfFHV4jXpPFQw0GAbJ--13" vertex="1">
          <mxGeometry y="26" width="160" height="26" as="geometry" />
        </mxCell>
        <mxCell id="zkfFHV4jXpPFQw0GAbJ--15" value="" style="line;html=1;strokeWidth=1;align=left;verticalAlign=middle;spacingTop=-1;spacingLeft=3;spacingRight=3;rotatable=0;labelPosition=right;points=[];portConstraint=eastwest;" parent="zkfFHV4jXpPFQw0GAbJ--13" vertex="1">
          <mxGeometry y="52" width="160" height="8" as="geometry" />
        </mxCell>
        <mxCell id="9S8VT6qx1uZMwdPPaOd9-148" value="+ coordinates(Coordinate)" style="text;align=left;verticalAlign=top;spacingLeft=4;spacingRight=4;overflow=hidden;rotatable=0;points=[[0,0.5],[1,0.5]];portConstraint=eastwest;" vertex="1" parent="zkfFHV4jXpPFQw0GAbJ--13">
          <mxGeometry y="60" width="160" height="28" as="geometry" />
        </mxCell>
        <mxCell id="9S8VT6qx1uZMwdPPaOd9-118" value="+ reveal()" style="text;align=left;verticalAlign=top;spacingLeft=4;spacingRight=4;overflow=hidden;rotatable=0;points=[[0,0.5],[1,0.5]];portConstraint=eastwest;" vertex="1" parent="zkfFHV4jXpPFQw0GAbJ--13">
          <mxGeometry y="88" width="160" height="28" as="geometry" />
        </mxCell>
        <mxCell id="zkfFHV4jXpPFQw0GAbJ--17" value="Game Board" style="swimlane;fontStyle=1;align=center;verticalAlign=top;childLayout=stackLayout;horizontal=1;startSize=26;horizontalStack=0;resizeParent=1;resizeLast=0;collapsible=1;marginBottom=0;rounded=0;shadow=0;strokeWidth=1;" parent="WIyWlLk6GJQsqaUBKTNV-1" vertex="1">
          <mxGeometry x="414" y="690" width="180" height="216" as="geometry">
            <mxRectangle x="550" y="140" width="160" height="26" as="alternateBounds" />
          </mxGeometry>
        </mxCell>
        <mxCell id="zkfFHV4jXpPFQw0GAbJ--18" value="- cells: Cell[][]" style="text;align=left;verticalAlign=top;spacingLeft=4;spacingRight=4;overflow=hidden;rotatable=0;points=[[0,0.5],[1,0.5]];portConstraint=eastwest;" parent="zkfFHV4jXpPFQw0GAbJ--17" vertex="1">
          <mxGeometry y="26" width="180" height="26" as="geometry" />
        </mxCell>
        <mxCell id="zkfFHV4jXpPFQw0GAbJ--19" value="- width: int" style="text;align=left;verticalAlign=top;spacingLeft=4;spacingRight=4;overflow=hidden;rotatable=0;points=[[0,0.5],[1,0.5]];portConstraint=eastwest;rounded=0;shadow=0;html=0;" parent="zkfFHV4jXpPFQw0GAbJ--17" vertex="1">
          <mxGeometry y="52" width="180" height="26" as="geometry" />
        </mxCell>
        <mxCell id="zkfFHV4jXpPFQw0GAbJ--20" value="- height: int" style="text;align=left;verticalAlign=top;spacingLeft=4;spacingRight=4;overflow=hidden;rotatable=0;points=[[0,0.5],[1,0.5]];portConstraint=eastwest;rounded=0;shadow=0;html=0;" parent="zkfFHV4jXpPFQw0GAbJ--17" vertex="1">
          <mxGeometry y="78" width="180" height="26" as="geometry" />
        </mxCell>
        <mxCell id="zkfFHV4jXpPFQw0GAbJ--23" value="" style="line;html=1;strokeWidth=1;align=left;verticalAlign=middle;spacingTop=-1;spacingLeft=3;spacingRight=3;rotatable=0;labelPosition=right;points=[];portConstraint=eastwest;" parent="zkfFHV4jXpPFQw0GAbJ--17" vertex="1">
          <mxGeometry y="104" width="180" height="8" as="geometry" />
        </mxCell>
        <mxCell id="zkfFHV4jXpPFQw0GAbJ--22" value="+ get cell(coordinate)" style="text;align=left;verticalAlign=top;spacingLeft=4;spacingRight=4;overflow=hidden;rotatable=0;points=[[0,0.5],[1,0.5]];portConstraint=eastwest;rounded=0;shadow=0;html=0;" parent="zkfFHV4jXpPFQw0GAbJ--17" vertex="1">
          <mxGeometry y="112" width="180" height="26" as="geometry" />
        </mxCell>
        <mxCell id="zkfFHV4jXpPFQw0GAbJ--21" value="+ reveal all mines()" style="text;align=left;verticalAlign=top;spacingLeft=4;spacingRight=4;overflow=hidden;rotatable=0;points=[[0,0.5],[1,0.5]];portConstraint=eastwest;rounded=0;shadow=0;html=0;" parent="zkfFHV4jXpPFQw0GAbJ--17" vertex="1">
          <mxGeometry y="138" width="180" height="26" as="geometry" />
        </mxCell>
        <mxCell id="zkfFHV4jXpPFQw0GAbJ--24" value="+ reveal safe cells(Coordinate)" style="text;align=left;verticalAlign=top;spacingLeft=4;spacingRight=4;overflow=hidden;rotatable=0;points=[[0,0.5],[1,0.5]];portConstraint=eastwest;" parent="zkfFHV4jXpPFQw0GAbJ--17" vertex="1">
          <mxGeometry y="164" width="180" height="26" as="geometry" />
        </mxCell>
        <mxCell id="zkfFHV4jXpPFQw0GAbJ--25" value="+ get nearby cells(Coordinate)" style="text;align=left;verticalAlign=top;spacingLeft=4;spacingRight=4;overflow=hidden;rotatable=0;points=[[0,0.5],[1,0.5]];portConstraint=eastwest;" parent="zkfFHV4jXpPFQw0GAbJ--17" vertex="1">
          <mxGeometry y="190" width="180" height="26" as="geometry" />
        </mxCell>
        <mxCell id="9S8VT6qx1uZMwdPPaOd9-1" value="Dangerous Cell" style="swimlane;fontStyle=1;align=center;verticalAlign=top;childLayout=stackLayout;horizontal=1;startSize=26;horizontalStack=0;resizeParent=1;resizeLast=0;collapsible=1;marginBottom=0;rounded=0;shadow=0;strokeWidth=1;" vertex="1" parent="WIyWlLk6GJQsqaUBKTNV-1">
          <mxGeometry x="180" y="1200" width="160" height="144" as="geometry">
            <mxRectangle x="340" y="380" width="170" height="26" as="alternateBounds" />
          </mxGeometry>
        </mxCell>
        <mxCell id="9S8VT6qx1uZMwdPPaOd9-146" value="+ coordinates(Coordinate)" style="text;align=left;verticalAlign=top;spacingLeft=4;spacingRight=4;overflow=hidden;rotatable=0;points=[[0,0.5],[1,0.5]];portConstraint=eastwest;" vertex="1" parent="9S8VT6qx1uZMwdPPaOd9-1">
          <mxGeometry y="26" width="160" height="28" as="geometry" />
        </mxCell>
        <mxCell id="9S8VT6qx1uZMwdPPaOd9-2" value="- number : int" style="text;align=left;verticalAlign=top;spacingLeft=4;spacingRight=4;overflow=hidden;rotatable=0;points=[[0,0.5],[1,0.5]];portConstraint=eastwest;" vertex="1" parent="9S8VT6qx1uZMwdPPaOd9-1">
          <mxGeometry y="54" width="160" height="26" as="geometry" />
        </mxCell>
        <mxCell id="9S8VT6qx1uZMwdPPaOd9-3" value="" style="line;html=1;strokeWidth=1;align=left;verticalAlign=middle;spacingTop=-1;spacingLeft=3;spacingRight=3;rotatable=0;labelPosition=right;points=[];portConstraint=eastwest;" vertex="1" parent="9S8VT6qx1uZMwdPPaOd9-1">
          <mxGeometry y="80" width="160" height="8" as="geometry" />
        </mxCell>
        <mxCell id="9S8VT6qx1uZMwdPPaOd9-122" value="+ get number()" style="text;align=left;verticalAlign=top;spacingLeft=4;spacingRight=4;overflow=hidden;rotatable=0;points=[[0,0.5],[1,0.5]];portConstraint=eastwest;" vertex="1" parent="9S8VT6qx1uZMwdPPaOd9-1">
          <mxGeometry y="88" width="160" height="28" as="geometry" />
        </mxCell>
        <mxCell id="9S8VT6qx1uZMwdPPaOd9-121" value="+ reveal()" style="text;align=left;verticalAlign=top;spacingLeft=4;spacingRight=4;overflow=hidden;rotatable=0;points=[[0,0.5],[1,0.5]];portConstraint=eastwest;" vertex="1" parent="9S8VT6qx1uZMwdPPaOd9-1">
          <mxGeometry y="116" width="160" height="28" as="geometry" />
        </mxCell>
        <mxCell id="9S8VT6qx1uZMwdPPaOd9-4" value="Mine Cell" style="swimlane;fontStyle=1;align=center;verticalAlign=top;childLayout=stackLayout;horizontal=1;startSize=26;horizontalStack=0;resizeParent=1;resizeLast=0;collapsible=1;marginBottom=0;rounded=0;shadow=0;strokeWidth=1;" vertex="1" parent="WIyWlLk6GJQsqaUBKTNV-1">
          <mxGeometry x="90" y="1079" width="160" height="90" as="geometry">
            <mxRectangle x="340" y="380" width="170" height="26" as="alternateBounds" />
          </mxGeometry>
        </mxCell>
        <mxCell id="9S8VT6qx1uZMwdPPaOd9-147" value="+ coordinates(Coordinate)" style="text;align=left;verticalAlign=top;spacingLeft=4;spacingRight=4;overflow=hidden;rotatable=0;points=[[0,0.5],[1,0.5]];portConstraint=eastwest;" vertex="1" parent="9S8VT6qx1uZMwdPPaOd9-4">
          <mxGeometry y="26" width="160" height="28" as="geometry" />
        </mxCell>
        <mxCell id="9S8VT6qx1uZMwdPPaOd9-6" value="" style="line;html=1;strokeWidth=1;align=left;verticalAlign=middle;spacingTop=-1;spacingLeft=3;spacingRight=3;rotatable=0;labelPosition=right;points=[];portConstraint=eastwest;" vertex="1" parent="9S8VT6qx1uZMwdPPaOd9-4">
          <mxGeometry y="54" width="160" height="8" as="geometry" />
        </mxCell>
        <mxCell id="9S8VT6qx1uZMwdPPaOd9-119" value="+ reveal()" style="text;align=left;verticalAlign=top;spacingLeft=4;spacingRight=4;overflow=hidden;rotatable=0;points=[[0,0.5],[1,0.5]];portConstraint=eastwest;" vertex="1" parent="9S8VT6qx1uZMwdPPaOd9-4">
          <mxGeometry y="62" width="160" height="28" as="geometry" />
        </mxCell>
        <mxCell id="9S8VT6qx1uZMwdPPaOd9-19" value="Game Settings" style="swimlane;fontStyle=1;align=center;verticalAlign=top;childLayout=stackLayout;horizontal=1;startSize=26;horizontalStack=0;resizeParent=1;resizeLast=0;collapsible=1;marginBottom=0;rounded=0;shadow=0;strokeWidth=1;" vertex="1" parent="WIyWlLk6GJQsqaUBKTNV-1">
          <mxGeometry x="560" y="70" width="160" height="196" as="geometry">
            <mxRectangle x="550" y="140" width="160" height="26" as="alternateBounds" />
          </mxGeometry>
        </mxCell>
        <mxCell id="9S8VT6qx1uZMwdPPaOd9-21" value="- width: int" style="text;align=left;verticalAlign=top;spacingLeft=4;spacingRight=4;overflow=hidden;rotatable=0;points=[[0,0.5],[1,0.5]];portConstraint=eastwest;rounded=0;shadow=0;html=0;" vertex="1" parent="9S8VT6qx1uZMwdPPaOd9-19">
          <mxGeometry y="26" width="160" height="26" as="geometry" />
        </mxCell>
        <mxCell id="9S8VT6qx1uZMwdPPaOd9-22" value="- height: int" style="text;align=left;verticalAlign=top;spacingLeft=4;spacingRight=4;overflow=hidden;rotatable=0;points=[[0,0.5],[1,0.5]];portConstraint=eastwest;rounded=0;shadow=0;html=0;" vertex="1" parent="9S8VT6qx1uZMwdPPaOd9-19">
          <mxGeometry y="52" width="160" height="26" as="geometry" />
        </mxCell>
        <mxCell id="9S8VT6qx1uZMwdPPaOd9-23" value="- mine count: int" style="text;align=left;verticalAlign=top;spacingLeft=4;spacingRight=4;overflow=hidden;rotatable=0;points=[[0,0.5],[1,0.5]];portConstraint=eastwest;rounded=0;shadow=0;html=0;" vertex="1" parent="9S8VT6qx1uZMwdPPaOd9-19">
          <mxGeometry y="78" width="160" height="26" as="geometry" />
        </mxCell>
        <mxCell id="9S8VT6qx1uZMwdPPaOd9-25" value="" style="line;html=1;strokeWidth=1;align=left;verticalAlign=middle;spacingTop=-1;spacingLeft=3;spacingRight=3;rotatable=0;labelPosition=right;points=[];portConstraint=eastwest;" vertex="1" parent="9S8VT6qx1uZMwdPPaOd9-19">
          <mxGeometry y="104" width="160" height="8" as="geometry" />
        </mxCell>
        <mxCell id="9S8VT6qx1uZMwdPPaOd9-24" value="+ get width()" style="text;align=left;verticalAlign=top;spacingLeft=4;spacingRight=4;overflow=hidden;rotatable=0;points=[[0,0.5],[1,0.5]];portConstraint=eastwest;rounded=0;shadow=0;html=0;" vertex="1" parent="9S8VT6qx1uZMwdPPaOd9-19">
          <mxGeometry y="112" width="160" height="26" as="geometry" />
        </mxCell>
        <mxCell id="9S8VT6qx1uZMwdPPaOd9-26" value="+ get height()" style="text;align=left;verticalAlign=top;spacingLeft=4;spacingRight=4;overflow=hidden;rotatable=0;points=[[0,0.5],[1,0.5]];portConstraint=eastwest;" vertex="1" parent="9S8VT6qx1uZMwdPPaOd9-19">
          <mxGeometry y="138" width="160" height="26" as="geometry" />
        </mxCell>
        <mxCell id="9S8VT6qx1uZMwdPPaOd9-27" value="+ get mine count()" style="text;align=left;verticalAlign=top;spacingLeft=4;spacingRight=4;overflow=hidden;rotatable=0;points=[[0,0.5],[1,0.5]];portConstraint=eastwest;" vertex="1" parent="9S8VT6qx1uZMwdPPaOd9-19">
          <mxGeometry y="164" width="160" height="26" as="geometry" />
        </mxCell>
        <mxCell id="9S8VT6qx1uZMwdPPaOd9-37" value="Score Manager" style="swimlane;fontStyle=1;align=center;verticalAlign=top;childLayout=stackLayout;horizontal=1;startSize=26;horizontalStack=0;resizeParent=1;resizeLast=0;collapsible=1;marginBottom=0;rounded=0;shadow=0;strokeWidth=1;" vertex="1" parent="WIyWlLk6GJQsqaUBKTNV-1">
          <mxGeometry x="200" y="180" width="160" height="216" as="geometry">
            <mxRectangle x="550" y="140" width="160" height="26" as="alternateBounds" />
          </mxGeometry>
        </mxCell>
        <mxCell id="9S8VT6qx1uZMwdPPaOd9-39" value="- time start: long" style="text;align=left;verticalAlign=top;spacingLeft=4;spacingRight=4;overflow=hidden;rotatable=0;points=[[0,0.5],[1,0.5]];portConstraint=eastwest;rounded=0;shadow=0;html=0;" vertex="1" parent="9S8VT6qx1uZMwdPPaOd9-37">
          <mxGeometry y="26" width="160" height="26" as="geometry" />
        </mxCell>
        <mxCell id="9S8VT6qx1uZMwdPPaOd9-41" value="- time passed: long" style="text;align=left;verticalAlign=top;spacingLeft=4;spacingRight=4;overflow=hidden;rotatable=0;points=[[0,0.5],[1,0.5]];portConstraint=eastwest;rounded=0;shadow=0;html=0;" vertex="1" parent="9S8VT6qx1uZMwdPPaOd9-37">
          <mxGeometry y="52" width="160" height="26" as="geometry" />
        </mxCell>
        <mxCell id="9S8VT6qx1uZMwdPPaOd9-40" value="- flags placed: int" style="text;align=left;verticalAlign=top;spacingLeft=4;spacingRight=4;overflow=hidden;rotatable=0;points=[[0,0.5],[1,0.5]];portConstraint=eastwest;rounded=0;shadow=0;html=0;" vertex="1" parent="9S8VT6qx1uZMwdPPaOd9-37">
          <mxGeometry y="78" width="160" height="26" as="geometry" />
        </mxCell>
        <mxCell id="9S8VT6qx1uZMwdPPaOd9-43" value="" style="line;html=1;strokeWidth=1;align=left;verticalAlign=middle;spacingTop=-1;spacingLeft=3;spacingRight=3;rotatable=0;labelPosition=right;points=[];portConstraint=eastwest;" vertex="1" parent="9S8VT6qx1uZMwdPPaOd9-37">
          <mxGeometry y="104" width="160" height="8" as="geometry" />
        </mxCell>
        <mxCell id="9S8VT6qx1uZMwdPPaOd9-42" value="+ start timer()" style="text;align=left;verticalAlign=top;spacingLeft=4;spacingRight=4;overflow=hidden;rotatable=0;points=[[0,0.5],[1,0.5]];portConstraint=eastwest;rounded=0;shadow=0;html=0;" vertex="1" parent="9S8VT6qx1uZMwdPPaOd9-37">
          <mxGeometry y="112" width="160" height="26" as="geometry" />
        </mxCell>
        <mxCell id="9S8VT6qx1uZMwdPPaOd9-44" value="+ stop timer()" style="text;align=left;verticalAlign=top;spacingLeft=4;spacingRight=4;overflow=hidden;rotatable=0;points=[[0,0.5],[1,0.5]];portConstraint=eastwest;" vertex="1" parent="9S8VT6qx1uZMwdPPaOd9-37">
          <mxGeometry y="138" width="160" height="26" as="geometry" />
        </mxCell>
        <mxCell id="9S8VT6qx1uZMwdPPaOd9-45" value="+ plant flag()" style="text;align=left;verticalAlign=top;spacingLeft=4;spacingRight=4;overflow=hidden;rotatable=0;points=[[0,0.5],[1,0.5]];portConstraint=eastwest;" vertex="1" parent="9S8VT6qx1uZMwdPPaOd9-37">
          <mxGeometry y="164" width="160" height="26" as="geometry" />
        </mxCell>
        <mxCell id="9S8VT6qx1uZMwdPPaOd9-129" value="+ remove flag()" style="text;align=left;verticalAlign=top;spacingLeft=4;spacingRight=4;overflow=hidden;rotatable=0;points=[[0,0.5],[1,0.5]];portConstraint=eastwest;" vertex="1" parent="9S8VT6qx1uZMwdPPaOd9-37">
          <mxGeometry y="190" width="160" height="26" as="geometry" />
        </mxCell>
        <mxCell id="9S8VT6qx1uZMwdPPaOd9-46" value="Board Renderer" style="swimlane;fontStyle=1;align=center;verticalAlign=top;childLayout=stackLayout;horizontal=1;startSize=26;horizontalStack=0;resizeParent=1;resizeLast=0;collapsible=1;marginBottom=0;rounded=0;shadow=0;strokeWidth=1;" vertex="1" parent="WIyWlLk6GJQsqaUBKTNV-1">
          <mxGeometry x="30" y="450" width="160" height="200" as="geometry">
            <mxRectangle x="550" y="140" width="160" height="26" as="alternateBounds" />
          </mxGeometry>
        </mxCell>
        <mxCell id="9S8VT6qx1uZMwdPPaOd9-47" value="- game board: Game Board" style="text;align=left;verticalAlign=top;spacingLeft=4;spacingRight=4;overflow=hidden;rotatable=0;points=[[0,0.5],[1,0.5]];portConstraint=eastwest;" vertex="1" parent="9S8VT6qx1uZMwdPPaOd9-46">
          <mxGeometry y="26" width="160" height="26" as="geometry" />
        </mxCell>
        <mxCell id="9S8VT6qx1uZMwdPPaOd9-48" value="- game state: Game State" style="text;align=left;verticalAlign=top;spacingLeft=4;spacingRight=4;overflow=hidden;rotatable=0;points=[[0,0.5],[1,0.5]];portConstraint=eastwest;rounded=0;shadow=0;html=0;" vertex="1" parent="9S8VT6qx1uZMwdPPaOd9-46">
          <mxGeometry y="52" width="160" height="26" as="geometry" />
        </mxCell>
        <mxCell id="9S8VT6qx1uZMwdPPaOd9-52" value="" style="line;html=1;strokeWidth=1;align=left;verticalAlign=middle;spacingTop=-1;spacingLeft=3;spacingRight=3;rotatable=0;labelPosition=right;points=[];portConstraint=eastwest;" vertex="1" parent="9S8VT6qx1uZMwdPPaOd9-46">
          <mxGeometry y="78" width="160" height="8" as="geometry" />
        </mxCell>
        <mxCell id="9S8VT6qx1uZMwdPPaOd9-50" value="+ render()" style="text;align=left;verticalAlign=top;spacingLeft=4;spacingRight=4;overflow=hidden;rotatable=0;points=[[0,0.5],[1,0.5]];portConstraint=eastwest;rounded=0;shadow=0;html=0;" vertex="1" parent="9S8VT6qx1uZMwdPPaOd9-46">
          <mxGeometry y="86" width="160" height="26" as="geometry" />
        </mxCell>
        <mxCell id="9S8VT6qx1uZMwdPPaOd9-49" value="+ draw cell(cell)" style="text;align=left;verticalAlign=top;spacingLeft=4;spacingRight=4;overflow=hidden;rotatable=0;points=[[0,0.5],[1,0.5]];portConstraint=eastwest;rounded=0;shadow=0;html=0;" vertex="1" parent="9S8VT6qx1uZMwdPPaOd9-46">
          <mxGeometry y="112" width="160" height="26" as="geometry" />
        </mxCell>
        <mxCell id="9S8VT6qx1uZMwdPPaOd9-53" value="+ draw gameover()" style="text;align=left;verticalAlign=top;spacingLeft=4;spacingRight=4;overflow=hidden;rotatable=0;points=[[0,0.5],[1,0.5]];portConstraint=eastwest;" vertex="1" parent="9S8VT6qx1uZMwdPPaOd9-46">
          <mxGeometry y="138" width="160" height="26" as="geometry" />
        </mxCell>
        <mxCell id="9S8VT6qx1uZMwdPPaOd9-54" value="+ draw victory()" style="text;align=left;verticalAlign=top;spacingLeft=4;spacingRight=4;overflow=hidden;rotatable=0;points=[[0,0.5],[1,0.5]];portConstraint=eastwest;" vertex="1" parent="9S8VT6qx1uZMwdPPaOd9-46">
          <mxGeometry y="164" width="160" height="26" as="geometry" />
        </mxCell>
        <mxCell id="9S8VT6qx1uZMwdPPaOd9-55" value="Input Handler" style="swimlane;fontStyle=1;align=center;verticalAlign=top;childLayout=stackLayout;horizontal=1;startSize=26;horizontalStack=0;resizeParent=1;resizeLast=0;collapsible=1;marginBottom=0;rounded=0;shadow=0;strokeWidth=1;" vertex="1" parent="WIyWlLk6GJQsqaUBKTNV-1">
          <mxGeometry x="220" y="470" width="170" height="144" as="geometry">
            <mxRectangle x="550" y="140" width="160" height="26" as="alternateBounds" />
          </mxGeometry>
        </mxCell>
        <mxCell id="9S8VT6qx1uZMwdPPaOd9-56" value="- game engine: Game Engine" style="text;align=left;verticalAlign=top;spacingLeft=4;spacingRight=4;overflow=hidden;rotatable=0;points=[[0,0.5],[1,0.5]];portConstraint=eastwest;" vertex="1" parent="9S8VT6qx1uZMwdPPaOd9-55">
          <mxGeometry y="26" width="170" height="26" as="geometry" />
        </mxCell>
        <mxCell id="9S8VT6qx1uZMwdPPaOd9-61" value="" style="line;html=1;strokeWidth=1;align=left;verticalAlign=middle;spacingTop=-1;spacingLeft=3;spacingRight=3;rotatable=0;labelPosition=right;points=[];portConstraint=eastwest;" vertex="1" parent="9S8VT6qx1uZMwdPPaOd9-55">
          <mxGeometry y="52" width="170" height="8" as="geometry" />
        </mxCell>
        <mxCell id="9S8VT6qx1uZMwdPPaOd9-60" value="+ handle mouse click(x, y,Â &#xa;button)" style="text;align=left;verticalAlign=top;spacingLeft=4;spacingRight=4;overflow=hidden;rotatable=0;points=[[0,0.5],[1,0.5]];portConstraint=eastwest;rounded=0;shadow=0;html=0;" vertex="1" parent="9S8VT6qx1uZMwdPPaOd9-55">
          <mxGeometry y="60" width="170" height="40" as="geometry" />
        </mxCell>
        <mxCell id="9S8VT6qx1uZMwdPPaOd9-59" value="+ convert pixel to coordinate(&#xa;x, y) : Coordinate" style="text;align=left;verticalAlign=top;spacingLeft=4;spacingRight=4;overflow=hidden;rotatable=0;points=[[0,0.5],[1,0.5]];portConstraint=eastwest;rounded=0;shadow=0;html=0;" vertex="1" parent="9S8VT6qx1uZMwdPPaOd9-55">
          <mxGeometry y="100" width="170" height="40" as="geometry" />
        </mxCell>
        <mxCell id="9S8VT6qx1uZMwdPPaOd9-83" value="Safe Cell" style="swimlane;fontStyle=1;align=center;verticalAlign=top;childLayout=stackLayout;horizontal=1;startSize=26;horizontalStack=0;resizeParent=1;resizeLast=0;collapsible=1;marginBottom=0;rounded=0;shadow=0;strokeWidth=1;" vertex="1" parent="WIyWlLk6GJQsqaUBKTNV-1">
          <mxGeometry x="360" y="1200" width="160" height="90" as="geometry">
            <mxRectangle x="340" y="380" width="170" height="26" as="alternateBounds" />
          </mxGeometry>
        </mxCell>
        <mxCell id="9S8VT6qx1uZMwdPPaOd9-145" value="+ coordinates(Coordinate)" style="text;align=left;verticalAlign=top;spacingLeft=4;spacingRight=4;overflow=hidden;rotatable=0;points=[[0,0.5],[1,0.5]];portConstraint=eastwest;" vertex="1" parent="9S8VT6qx1uZMwdPPaOd9-83">
          <mxGeometry y="26" width="160" height="28" as="geometry" />
        </mxCell>
        <mxCell id="9S8VT6qx1uZMwdPPaOd9-85" value="" style="line;html=1;strokeWidth=1;align=left;verticalAlign=middle;spacingTop=-1;spacingLeft=3;spacingRight=3;rotatable=0;labelPosition=right;points=[];portConstraint=eastwest;" vertex="1" parent="9S8VT6qx1uZMwdPPaOd9-83">
          <mxGeometry y="54" width="160" height="8" as="geometry" />
        </mxCell>
        <mxCell id="9S8VT6qx1uZMwdPPaOd9-120" value="+ reveal()" style="text;align=left;verticalAlign=top;spacingLeft=4;spacingRight=4;overflow=hidden;rotatable=0;points=[[0,0.5],[1,0.5]];portConstraint=eastwest;" vertex="1" parent="9S8VT6qx1uZMwdPPaOd9-83">
          <mxGeometry y="62" width="160" height="28" as="geometry" />
        </mxCell>
        <mxCell id="9S8VT6qx1uZMwdPPaOd9-88" value="Board Generator" style="swimlane;fontStyle=1;align=center;verticalAlign=top;childLayout=stackLayout;horizontal=1;startSize=26;horizontalStack=0;resizeParent=1;resizeLast=0;collapsible=1;marginBottom=0;rounded=0;shadow=0;strokeWidth=1;" vertex="1" parent="WIyWlLk6GJQsqaUBKTNV-1">
          <mxGeometry x="720" y="560" width="160" height="200" as="geometry">
            <mxRectangle x="550" y="140" width="160" height="26" as="alternateBounds" />
          </mxGeometry>
        </mxCell>
        <mxCell id="9S8VT6qx1uZMwdPPaOd9-89" value="- cell factory: Cell Factory" style="text;align=left;verticalAlign=top;spacingLeft=4;spacingRight=4;overflow=hidden;rotatable=0;points=[[0,0.5],[1,0.5]];portConstraint=eastwest;" vertex="1" parent="9S8VT6qx1uZMwdPPaOd9-88">
          <mxGeometry y="26" width="160" height="26" as="geometry" />
        </mxCell>
        <mxCell id="9S8VT6qx1uZMwdPPaOd9-94" value="" style="line;html=1;strokeWidth=1;align=left;verticalAlign=middle;spacingTop=-1;spacingLeft=3;spacingRight=3;rotatable=0;labelPosition=right;points=[];portConstraint=eastwest;" vertex="1" parent="9S8VT6qx1uZMwdPPaOd9-88">
          <mxGeometry y="52" width="160" height="8" as="geometry" />
        </mxCell>
        <mxCell id="9S8VT6qx1uZMwdPPaOd9-95" value="+ generate board(Game&#xa;Settings): GameBoard" style="text;align=left;verticalAlign=top;spacingLeft=4;spacingRight=4;overflow=hidden;rotatable=0;points=[[0,0.5],[1,0.5]];portConstraint=eastwest;" vertex="1" parent="9S8VT6qx1uZMwdPPaOd9-88">
          <mxGeometry y="60" width="160" height="42" as="geometry" />
        </mxCell>
        <mxCell id="9S8VT6qx1uZMwdPPaOd9-96" value="+ place mines(Game Board,&#xa;mine count)" style="text;align=left;verticalAlign=top;spacingLeft=4;spacingRight=4;overflow=hidden;rotatable=0;points=[[0,0.5],[1,0.5]];portConstraint=eastwest;" vertex="1" parent="9S8VT6qx1uZMwdPPaOd9-88">
          <mxGeometry y="102" width="160" height="46" as="geometry" />
        </mxCell>
        <mxCell id="9S8VT6qx1uZMwdPPaOd9-131" value="+ calculate numbers(Game&#xa;Board)" style="text;align=left;verticalAlign=top;spacingLeft=4;spacingRight=4;overflow=hidden;rotatable=0;points=[[0,0.5],[1,0.5]];portConstraint=eastwest;" vertex="1" parent="9S8VT6qx1uZMwdPPaOd9-88">
          <mxGeometry y="148" width="160" height="36" as="geometry" />
        </mxCell>
        <mxCell id="9S8VT6qx1uZMwdPPaOd9-97" value="Game State" style="swimlane;fontStyle=1;align=center;verticalAlign=top;childLayout=stackLayout;horizontal=1;startSize=26;horizontalStack=0;resizeParent=1;resizeLast=0;collapsible=1;marginBottom=0;rounded=0;shadow=0;strokeWidth=1;" vertex="1" parent="WIyWlLk6GJQsqaUBKTNV-1">
          <mxGeometry x="620" y="310" width="160" height="190" as="geometry">
            <mxRectangle x="550" y="140" width="160" height="26" as="alternateBounds" />
          </mxGeometry>
        </mxCell>
        <mxCell id="9S8VT6qx1uZMwdPPaOd9-98" value="- is game active: boolean" style="text;align=left;verticalAlign=top;spacingLeft=4;spacingRight=4;overflow=hidden;rotatable=0;points=[[0,0.5],[1,0.5]];portConstraint=eastwest;" vertex="1" parent="9S8VT6qx1uZMwdPPaOd9-97">
          <mxGeometry y="26" width="160" height="26" as="geometry" />
        </mxCell>
        <mxCell id="9S8VT6qx1uZMwdPPaOd9-99" value="- is game won: boolean" style="text;align=left;verticalAlign=top;spacingLeft=4;spacingRight=4;overflow=hidden;rotatable=0;points=[[0,0.5],[1,0.5]];portConstraint=eastwest;rounded=0;shadow=0;html=0;" vertex="1" parent="9S8VT6qx1uZMwdPPaOd9-97">
          <mxGeometry y="52" width="160" height="26" as="geometry" />
        </mxCell>
        <mxCell id="9S8VT6qx1uZMwdPPaOd9-100" value="- is game over: boolean" style="text;align=left;verticalAlign=top;spacingLeft=4;spacingRight=4;overflow=hidden;rotatable=0;points=[[0,0.5],[1,0.5]];portConstraint=eastwest;rounded=0;shadow=0;html=0;" vertex="1" parent="9S8VT6qx1uZMwdPPaOd9-97">
          <mxGeometry y="78" width="160" height="26" as="geometry" />
        </mxCell>
        <mxCell id="9S8VT6qx1uZMwdPPaOd9-103" value="" style="line;html=1;strokeWidth=1;align=left;verticalAlign=middle;spacingTop=-1;spacingLeft=3;spacingRight=3;rotatable=0;labelPosition=right;points=[];portConstraint=eastwest;" vertex="1" parent="9S8VT6qx1uZMwdPPaOd9-97">
          <mxGeometry y="104" width="160" height="8" as="geometry" />
        </mxCell>
        <mxCell id="9S8VT6qx1uZMwdPPaOd9-102" value="+ set game active" style="text;align=left;verticalAlign=top;spacingLeft=4;spacingRight=4;overflow=hidden;rotatable=0;points=[[0,0.5],[1,0.5]];portConstraint=eastwest;rounded=0;shadow=0;html=0;" vertex="1" parent="9S8VT6qx1uZMwdPPaOd9-97">
          <mxGeometry y="112" width="160" height="26" as="geometry" />
        </mxCell>
        <mxCell id="9S8VT6qx1uZMwdPPaOd9-101" value="+ set game won" style="text;align=left;verticalAlign=top;spacingLeft=4;spacingRight=4;overflow=hidden;rotatable=0;points=[[0,0.5],[1,0.5]];portConstraint=eastwest;rounded=0;shadow=0;html=0;" vertex="1" parent="9S8VT6qx1uZMwdPPaOd9-97">
          <mxGeometry y="138" width="160" height="26" as="geometry" />
        </mxCell>
        <mxCell id="9S8VT6qx1uZMwdPPaOd9-104" value="+ set game over" style="text;align=left;verticalAlign=top;spacingLeft=4;spacingRight=4;overflow=hidden;rotatable=0;points=[[0,0.5],[1,0.5]];portConstraint=eastwest;" vertex="1" parent="9S8VT6qx1uZMwdPPaOd9-97">
          <mxGeometry y="164" width="160" height="26" as="geometry" />
        </mxCell>
        <mxCell id="9S8VT6qx1uZMwdPPaOd9-106" value="Coordinate" style="swimlane;fontStyle=1;align=center;verticalAlign=top;childLayout=stackLayout;horizontal=1;startSize=26;horizontalStack=0;resizeParent=1;resizeLast=0;collapsible=1;marginBottom=0;rounded=0;shadow=0;strokeWidth=1;" vertex="1" parent="WIyWlLk6GJQsqaUBKTNV-1">
          <mxGeometry x="720" y="990" width="160" height="140" as="geometry">
            <mxRectangle x="550" y="140" width="160" height="26" as="alternateBounds" />
          </mxGeometry>
        </mxCell>
        <mxCell id="9S8VT6qx1uZMwdPPaOd9-107" value="- x: int" style="text;align=left;verticalAlign=top;spacingLeft=4;spacingRight=4;overflow=hidden;rotatable=0;points=[[0,0.5],[1,0.5]];portConstraint=eastwest;" vertex="1" parent="9S8VT6qx1uZMwdPPaOd9-106">
          <mxGeometry y="26" width="160" height="26" as="geometry" />
        </mxCell>
        <mxCell id="9S8VT6qx1uZMwdPPaOd9-108" value="- y: int" style="text;align=left;verticalAlign=top;spacingLeft=4;spacingRight=4;overflow=hidden;rotatable=0;points=[[0,0.5],[1,0.5]];portConstraint=eastwest;rounded=0;shadow=0;html=0;" vertex="1" parent="9S8VT6qx1uZMwdPPaOd9-106">
          <mxGeometry y="52" width="160" height="26" as="geometry" />
        </mxCell>
        <mxCell id="9S8VT6qx1uZMwdPPaOd9-112" value="" style="line;html=1;strokeWidth=1;align=left;verticalAlign=middle;spacingTop=-1;spacingLeft=3;spacingRight=3;rotatable=0;labelPosition=right;points=[];portConstraint=eastwest;" vertex="1" parent="9S8VT6qx1uZMwdPPaOd9-106">
          <mxGeometry y="78" width="160" height="8" as="geometry" />
        </mxCell>
        <mxCell id="9S8VT6qx1uZMwdPPaOd9-110" value="+ get x()" style="text;align=left;verticalAlign=top;spacingLeft=4;spacingRight=4;overflow=hidden;rotatable=0;points=[[0,0.5],[1,0.5]];portConstraint=eastwest;rounded=0;shadow=0;html=0;" vertex="1" parent="9S8VT6qx1uZMwdPPaOd9-106">
          <mxGeometry y="86" width="160" height="26" as="geometry" />
        </mxCell>
        <mxCell id="9S8VT6qx1uZMwdPPaOd9-109" value="+ get y()" style="text;align=left;verticalAlign=top;spacingLeft=4;spacingRight=4;overflow=hidden;rotatable=0;points=[[0,0.5],[1,0.5]];portConstraint=eastwest;rounded=0;shadow=0;html=0;" vertex="1" parent="9S8VT6qx1uZMwdPPaOd9-106">
          <mxGeometry y="112" width="160" height="26" as="geometry" />
        </mxCell>
        <mxCell id="9S8VT6qx1uZMwdPPaOd9-133" value="&lt;p style=&quot;margin:0px;margin-top:4px;text-align:center;&quot;&gt;&lt;i&gt;&amp;lt;&amp;lt;Interface&amp;gt;&amp;gt;&lt;/i&gt;&lt;br&gt;&lt;b&gt;Cell Operations&lt;/b&gt;&lt;/p&gt;&lt;p style=&quot;margin:0px;margin-left:4px;&quot;&gt;&lt;br&gt;&lt;/p&gt;&lt;hr size=&quot;1&quot; style=&quot;border-style:solid;&quot;&gt;&lt;p style=&quot;margin:0px;margin-left:4px;&quot;&gt;&lt;span style=&quot;background-color: transparent;&quot;&gt;+ reveal()&lt;/span&gt;&lt;/p&gt;&lt;p style=&quot;margin:0px;margin-left:4px;&quot;&gt;+ toggle flag()&lt;/p&gt;&lt;p style=&quot;margin:0px;margin-left:4px;&quot;&gt;+ is revealed()&lt;/p&gt;&lt;p style=&quot;margin:0px;margin-left:4px;&quot;&gt;+ is flagged()&lt;/p&gt;&lt;p style=&quot;margin:0px;margin-left:4px;&quot;&gt;+ calculate mines nearby&amp;nbsp;&lt;span style=&quot;background-color: transparent; color: light-dark(rgb(0, 0, 0), rgb(255, 255, 255));&quot;&gt;(GameBoard)&lt;/span&gt;&lt;/p&gt;" style="verticalAlign=top;align=left;overflow=fill;html=1;whiteSpace=wrap;" vertex="1" parent="WIyWlLk6GJQsqaUBKTNV-1">
          <mxGeometry x="-20" y="770" width="140" height="150" as="geometry" />
        </mxCell>
        <mxCell id="9S8VT6qx1uZMwdPPaOd9-134" value="" style="endArrow=open;html=1;endSize=12;startArrow=diamondThin;startSize=14;startFill=1;align=left;verticalAlign=bottom;rounded=0;entryX=0.5;entryY=0;entryDx=0;entryDy=0;exitX=0.5;exitY=0;exitDx=0;exitDy=0;" edge="1" parent="WIyWlLk6GJQsqaUBKTNV-1" source="zkfFHV4jXpPFQw0GAbJ--17" target="zkfFHV4jXpPFQw0GAbJ--6">
          <mxGeometry x="-1" y="3" relative="1" as="geometry">
            <mxPoint x="570" y="630" as="sourcePoint" />
            <mxPoint x="480" y="665" as="targetPoint" />
            <Array as="points">
              <mxPoint x="504" y="670" />
              <mxPoint x="260" y="670" />
            </Array>
          </mxGeometry>
        </mxCell>
        <mxCell id="9S8VT6qx1uZMwdPPaOd9-135" value="" style="endArrow=open;html=1;endSize=12;startArrow=diamondThin;startSize=14;startFill=0;align=left;verticalAlign=bottom;rounded=0;exitX=0.492;exitY=1.083;exitDx=0;exitDy=0;exitPerimeter=0;entryX=0.75;entryY=0;entryDx=0;entryDy=0;" edge="1" parent="WIyWlLk6GJQsqaUBKTNV-1" source="9S8VT6qx1uZMwdPPaOd9-126" target="zkfFHV4jXpPFQw0GAbJ--17">
          <mxGeometry x="-1" y="3" relative="1" as="geometry">
            <mxPoint x="220" y="580" as="sourcePoint" />
            <mxPoint x="380" y="580" as="targetPoint" />
            <Array as="points">
              <mxPoint x="507" y="640" />
              <mxPoint x="550" y="640" />
            </Array>
          </mxGeometry>
        </mxCell>
        <mxCell id="9S8VT6qx1uZMwdPPaOd9-136" value="" style="endArrow=open;html=1;endSize=12;startArrow=diamondThin;startSize=14;startFill=0;align=left;verticalAlign=bottom;rounded=0;exitX=0.5;exitY=0;exitDx=0;exitDy=0;entryX=0.5;entryY=0;entryDx=0;entryDy=0;" edge="1" parent="WIyWlLk6GJQsqaUBKTNV-1" source="zkfFHV4jXpPFQw0GAbJ--0" target="9S8VT6qx1uZMwdPPaOd9-37">
          <mxGeometry x="-1" y="3" relative="1" as="geometry">
            <mxPoint x="250" y="560" as="sourcePoint" />
            <mxPoint x="292" y="626" as="targetPoint" />
            <Array as="points">
              <mxPoint x="509" y="280" />
              <mxPoint x="440" y="280" />
              <mxPoint x="440" y="160" />
              <mxPoint x="360" y="160" />
              <mxPoint x="280" y="160" />
            </Array>
          </mxGeometry>
        </mxCell>
        <mxCell id="9S8VT6qx1uZMwdPPaOd9-138" value="" style="endArrow=open;html=1;endSize=12;startArrow=diamondThin;startSize=14;startFill=0;align=left;verticalAlign=bottom;rounded=0;exitX=0.75;exitY=0;exitDx=0;exitDy=0;entryX=0.5;entryY=0;entryDx=0;entryDy=0;" edge="1" parent="WIyWlLk6GJQsqaUBKTNV-1" source="zkfFHV4jXpPFQw0GAbJ--0" target="9S8VT6qx1uZMwdPPaOd9-97">
          <mxGeometry x="-1" y="3" relative="1" as="geometry">
            <mxPoint x="650" y="420" as="sourcePoint" />
            <mxPoint x="560" y="280" as="targetPoint" />
            <Array as="points">
              <mxPoint x="556" y="280" />
              <mxPoint x="700" y="280" />
            </Array>
          </mxGeometry>
        </mxCell>
        <mxCell id="9S8VT6qx1uZMwdPPaOd9-141" value="Extends" style="endArrow=block;endSize=16;endFill=0;html=1;rounded=0;exitX=0.462;exitY=1.011;exitDx=0;exitDy=0;exitPerimeter=0;entryX=0.5;entryY=0;entryDx=0;entryDy=0;" edge="1" parent="WIyWlLk6GJQsqaUBKTNV-1" source="9S8VT6qx1uZMwdPPaOd9-117" target="9S8VT6qx1uZMwdPPaOd9-4">
          <mxGeometry x="0.6297" y="-6" width="160" relative="1" as="geometry">
            <mxPoint x="140" y="1070" as="sourcePoint" />
            <mxPoint x="110" y="1140" as="targetPoint" />
            <mxPoint as="offset" />
          </mxGeometry>
        </mxCell>
        <mxCell id="9S8VT6qx1uZMwdPPaOd9-142" value="Extends" style="endArrow=block;endSize=16;endFill=0;html=1;rounded=0;entryX=0.5;entryY=0;entryDx=0;entryDy=0;exitX=0.583;exitY=0.993;exitDx=0;exitDy=0;exitPerimeter=0;" edge="1" parent="WIyWlLk6GJQsqaUBKTNV-1" source="9S8VT6qx1uZMwdPPaOd9-117" target="zkfFHV4jXpPFQw0GAbJ--13">
          <mxGeometry x="0.2338" y="-1" width="160" relative="1" as="geometry">
            <mxPoint x="260" y="910" as="sourcePoint" />
            <mxPoint x="30" y="1173" as="targetPoint" />
            <mxPoint as="offset" />
          </mxGeometry>
        </mxCell>
        <mxCell id="9S8VT6qx1uZMwdPPaOd9-143" value="Extends" style="endArrow=block;endSize=16;endFill=0;html=1;rounded=0;exitX=0.553;exitY=0.995;exitDx=0;exitDy=0;exitPerimeter=0;entryX=0.5;entryY=0;entryDx=0;entryDy=0;" edge="1" parent="WIyWlLk6GJQsqaUBKTNV-1" source="9S8VT6qx1uZMwdPPaOd9-118" target="9S8VT6qx1uZMwdPPaOd9-83">
          <mxGeometry x="0.0009" width="160" relative="1" as="geometry">
            <mxPoint x="676" y="1130" as="sourcePoint" />
            <mxPoint x="590" y="1163" as="targetPoint" />
            <mxPoint as="offset" />
          </mxGeometry>
        </mxCell>
        <mxCell id="9S8VT6qx1uZMwdPPaOd9-144" value="Extends" style="endArrow=block;endSize=16;endFill=0;html=1;rounded=0;exitX=0.434;exitY=1.011;exitDx=0;exitDy=0;exitPerimeter=0;entryX=0.5;entryY=0;entryDx=0;entryDy=0;" edge="1" parent="WIyWlLk6GJQsqaUBKTNV-1" source="9S8VT6qx1uZMwdPPaOd9-118" target="9S8VT6qx1uZMwdPPaOd9-1">
          <mxGeometry x="0.0009" width="160" relative="1" as="geometry">
            <mxPoint x="586" y="1000" as="sourcePoint" />
            <mxPoint x="500" y="1033" as="targetPoint" />
            <mxPoint as="offset" />
          </mxGeometry>
        </mxCell>
        <mxCell id="9S8VT6qx1uZMwdPPaOd9-151" value="" style="endArrow=open;html=1;endSize=12;startArrow=diamondThin;startSize=14;startFill=1;align=left;verticalAlign=bottom;rounded=0;entryX=0.5;entryY=0;entryDx=0;entryDy=0;exitX=0.452;exitY=1.128;exitDx=0;exitDy=0;exitPerimeter=0;" edge="1" parent="WIyWlLk6GJQsqaUBKTNV-1" source="zkfFHV4jXpPFQw0GAbJ--25" target="9S8VT6qx1uZMwdPPaOd9-106">
          <mxGeometry x="-1" y="3" relative="1" as="geometry">
            <mxPoint x="790" y="970" as="sourcePoint" />
            <mxPoint x="640" y="920" as="targetPoint" />
            <Array as="points">
              <mxPoint x="495" y="940" />
              <mxPoint x="800" y="940" />
            </Array>
          </mxGeometry>
        </mxCell>
        <mxCell id="9S8VT6qx1uZMwdPPaOd9-152" value="" style="endArrow=open;html=1;endSize=12;startArrow=diamondThin;startSize=14;startFill=0;align=left;verticalAlign=bottom;rounded=0;entryX=0.5;entryY=0;entryDx=0;entryDy=0;" edge="1" parent="WIyWlLk6GJQsqaUBKTNV-1" target="9S8VT6qx1uZMwdPPaOd9-46">
          <mxGeometry x="-1" y="3" relative="1" as="geometry">
            <mxPoint x="414" y="421" as="sourcePoint" />
            <mxPoint x="852" y="246" as="targetPoint" />
            <Array as="points">
              <mxPoint x="360" y="421" />
              <mxPoint x="110" y="421" />
            </Array>
          </mxGeometry>
        </mxCell>
        <mxCell id="9S8VT6qx1uZMwdPPaOd9-153" value="" style="endArrow=open;html=1;endSize=12;startArrow=diamondThin;startSize=14;startFill=0;align=left;verticalAlign=bottom;rounded=0;entryX=0.5;entryY=0;entryDx=0;entryDy=0;exitX=-0.008;exitY=0.189;exitDx=0;exitDy=0;exitPerimeter=0;" edge="1" parent="WIyWlLk6GJQsqaUBKTNV-1" source="9S8VT6qx1uZMwdPPaOd9-127" target="9S8VT6qx1uZMwdPPaOd9-55">
          <mxGeometry x="-1" y="3" relative="1" as="geometry">
            <mxPoint x="314" y="350" as="sourcePoint" />
            <mxPoint x="10" y="379" as="targetPoint" />
            <Array as="points">
              <mxPoint x="305" y="440" />
            </Array>
          </mxGeometry>
        </mxCell>
        <mxCell id="9S8VT6qx1uZMwdPPaOd9-154" value="" style="endArrow=block;dashed=1;endFill=0;endSize=12;html=1;rounded=0;exitX=-0.005;exitY=0.164;exitDx=0;exitDy=0;entryX=0.5;entryY=0;entryDx=0;entryDy=0;exitPerimeter=0;" edge="1" parent="WIyWlLk6GJQsqaUBKTNV-1" source="zkfFHV4jXpPFQw0GAbJ--7" target="9S8VT6qx1uZMwdPPaOd9-133">
          <mxGeometry width="160" relative="1" as="geometry">
            <mxPoint x="-90" y="780" as="sourcePoint" />
            <mxPoint x="70" y="780" as="targetPoint" />
            <Array as="points">
              <mxPoint x="50" y="750" />
            </Array>
          </mxGeometry>
        </mxCell>
        <mxCell id="9S8VT6qx1uZMwdPPaOd9-155" value="realization" style="edgeLabel;html=1;align=center;verticalAlign=middle;resizable=0;points=[];" vertex="1" connectable="0" parent="9S8VT6qx1uZMwdPPaOd9-154">
          <mxGeometry x="0.7078" relative="1" as="geometry">
            <mxPoint x="59" as="offset" />
          </mxGeometry>
        </mxCell>
        <mxCell id="9S8VT6qx1uZMwdPPaOd9-163" value="uses for safe start" style="endArrow=block;endFill=1;html=1;edgeStyle=orthogonalEdgeStyle;align=left;verticalAlign=top;rounded=0;entryX=0.75;entryY=0;entryDx=0;entryDy=0;exitX=0.5;exitY=1;exitDx=0;exitDy=0;" edge="1" parent="WIyWlLk6GJQsqaUBKTNV-1" source="9S8VT6qx1uZMwdPPaOd9-88" target="9S8VT6qx1uZMwdPPaOd9-106">
          <mxGeometry x="-0.7254" y="-40" relative="1" as="geometry">
            <mxPoint x="700" y="830" as="sourcePoint" />
            <mxPoint x="930" y="870" as="targetPoint" />
            <Array as="points">
              <mxPoint x="800" y="906" />
              <mxPoint x="840" y="906" />
            </Array>
            <mxPoint as="offset" />
          </mxGeometry>
        </mxCell>
        <mxCell id="9S8VT6qx1uZMwdPPaOd9-165" value="" style="endArrow=block;endFill=1;html=1;edgeStyle=orthogonalEdgeStyle;align=left;verticalAlign=top;rounded=0;entryX=0.891;entryY=0.003;entryDx=0;entryDy=0;entryPerimeter=0;exitX=0;exitY=0.5;exitDx=0;exitDy=0;" edge="1" parent="WIyWlLk6GJQsqaUBKTNV-1" target="zkfFHV4jXpPFQw0GAbJ--17">
          <mxGeometry x="-1" relative="1" as="geometry">
            <mxPoint x="720" y="651" as="sourcePoint" />
            <mxPoint x="780" y="860" as="targetPoint" />
            <mxPoint as="offset" />
          </mxGeometry>
        </mxCell>
        <mxCell id="9S8VT6qx1uZMwdPPaOd9-167" value="creates and modifies" style="edgeLabel;html=1;align=center;verticalAlign=middle;resizable=0;points=[];" vertex="1" connectable="0" parent="9S8VT6qx1uZMwdPPaOd9-165">
          <mxGeometry x="0.0068" y="-2" relative="1" as="geometry">
            <mxPoint as="offset" />
          </mxGeometry>
        </mxCell>
        <mxCell id="9S8VT6qx1uZMwdPPaOd9-168" value="" style="endArrow=block;endFill=1;html=1;edgeStyle=orthogonalEdgeStyle;align=left;verticalAlign=top;rounded=0;entryX=0.5;entryY=0;entryDx=0;entryDy=0;exitX=1;exitY=0.5;exitDx=0;exitDy=0;" edge="1" parent="WIyWlLk6GJQsqaUBKTNV-1" source="9S8VT6qx1uZMwdPPaOd9-124" target="9S8VT6qx1uZMwdPPaOd9-88">
          <mxGeometry x="-1" relative="1" as="geometry">
            <mxPoint x="1116" y="460" as="sourcePoint" />
            <mxPoint x="970" y="474" as="targetPoint" />
          </mxGeometry>
        </mxCell>
        <mxCell id="9S8VT6qx1uZMwdPPaOd9-170" value="creates board via" style="edgeLabel;html=1;align=center;verticalAlign=middle;resizable=0;points=[];" vertex="1" connectable="0" parent="9S8VT6qx1uZMwdPPaOd9-168">
          <mxGeometry x="0.0068" y="-2" relative="1" as="geometry">
            <mxPoint as="offset" />
          </mxGeometry>
        </mxCell>
        <mxCell id="9S8VT6qx1uZMwdPPaOd9-171" value="" style="endArrow=block;endFill=1;html=1;edgeStyle=orthogonalEdgeStyle;align=left;verticalAlign=top;rounded=0;exitX=1;exitY=0.5;exitDx=0;exitDy=0;entryX=0;entryY=0.5;entryDx=0;entryDy=0;" edge="1" parent="WIyWlLk6GJQsqaUBKTNV-1" source="zkfFHV4jXpPFQw0GAbJ--8" target="zkfFHV4jXpPFQw0GAbJ--19">
          <mxGeometry x="-1" relative="1" as="geometry">
            <mxPoint x="360" y="750" as="sourcePoint" />
            <mxPoint x="410" y="750" as="targetPoint" />
          </mxGeometry>
        </mxCell>
        <mxCell id="9S8VT6qx1uZMwdPPaOd9-173" value="calculate&amp;nbsp;&lt;div&gt;mines&amp;nbsp;&lt;div&gt;nearby&lt;/div&gt;&lt;/div&gt;" style="edgeLabel;html=1;align=center;verticalAlign=middle;resizable=0;points=[];" vertex="1" connectable="0" parent="9S8VT6qx1uZMwdPPaOd9-171">
          <mxGeometry x="-0.2367" relative="1" as="geometry">
            <mxPoint x="2" y="-5" as="offset" />
          </mxGeometry>
        </mxCell>
        <mxCell id="9S8VT6qx1uZMwdPPaOd9-174" value="" style="endArrow=block;endFill=1;html=1;edgeStyle=orthogonalEdgeStyle;align=left;verticalAlign=top;rounded=0;exitX=0.75;exitY=0;exitDx=0;exitDy=0;entryX=0;entryY=0.5;entryDx=0;entryDy=0;" edge="1" parent="WIyWlLk6GJQsqaUBKTNV-1" source="9S8VT6qx1uZMwdPPaOd9-4" target="zkfFHV4jXpPFQw0GAbJ--21">
          <mxGeometry x="-1" relative="1" as="geometry">
            <mxPoint x="380" y="940" as="sourcePoint" />
            <mxPoint x="380" y="830" as="targetPoint" />
            <Array as="points">
              <mxPoint x="210" y="960" />
              <mxPoint x="360" y="960" />
              <mxPoint x="360" y="841" />
            </Array>
          </mxGeometry>
        </mxCell>
        <mxCell id="9S8VT6qx1uZMwdPPaOd9-175" value="triggers&lt;div&gt;explosion&lt;/div&gt;" style="edgeLabel;html=1;align=center;verticalAlign=middle;resizable=0;points=[];" vertex="1" connectable="0" parent="9S8VT6qx1uZMwdPPaOd9-174">
          <mxGeometry x="-0.2367" relative="1" as="geometry">
            <mxPoint x="97" y="-94" as="offset" />
          </mxGeometry>
        </mxCell>
        <mxCell id="9S8VT6qx1uZMwdPPaOd9-176" value="" style="endArrow=block;endFill=1;html=1;edgeStyle=orthogonalEdgeStyle;align=left;verticalAlign=top;rounded=0;exitX=0.617;exitY=-0.006;exitDx=0;exitDy=0;entryX=0;entryY=0.5;entryDx=0;entryDy=0;exitPerimeter=0;" edge="1" parent="WIyWlLk6GJQsqaUBKTNV-1" source="zkfFHV4jXpPFQw0GAbJ--13" target="zkfFHV4jXpPFQw0GAbJ--25">
          <mxGeometry x="-1" relative="1" as="geometry">
            <mxPoint x="390" y="930" as="sourcePoint" />
            <mxPoint x="464" y="930" as="targetPoint" />
          </mxGeometry>
        </mxCell>
        <mxCell id="9S8VT6qx1uZMwdPPaOd9-177" value="reveal&lt;div&gt;nearby&lt;/div&gt;&lt;div&gt;cells&lt;/div&gt;" style="edgeLabel;html=1;align=center;verticalAlign=middle;resizable=0;points=[];" vertex="1" connectable="0" parent="9S8VT6qx1uZMwdPPaOd9-176">
          <mxGeometry x="-0.2367" relative="1" as="geometry">
            <mxPoint x="11" y="12" as="offset" />
          </mxGeometry>
        </mxCell>
        <mxCell id="9S8VT6qx1uZMwdPPaOd9-178" value="" style="endArrow=block;endFill=1;html=1;edgeStyle=orthogonalEdgeStyle;align=left;verticalAlign=top;rounded=0;exitX=0.611;exitY=0;exitDx=0;exitDy=0;entryX=0.25;entryY=0;entryDx=0;entryDy=0;exitPerimeter=0;" edge="1" parent="WIyWlLk6GJQsqaUBKTNV-1" target="9S8VT6qx1uZMwdPPaOd9-19">
          <mxGeometry x="-1" relative="1" as="geometry">
            <mxPoint x="520.0200000000001" y="295.96" as="sourcePoint" />
            <mxPoint x="598.2500000000001" y="36.94000000000002" as="targetPoint" />
            <Array as="points">
              <mxPoint x="520" y="50" />
              <mxPoint x="600" y="50" />
            </Array>
          </mxGeometry>
        </mxCell>
        <mxCell id="9S8VT6qx1uZMwdPPaOd9-179" value="uses for setup" style="edgeLabel;html=1;align=center;verticalAlign=middle;resizable=0;points=[];" vertex="1" connectable="0" parent="9S8VT6qx1uZMwdPPaOd9-178">
          <mxGeometry x="-0.2367" relative="1" as="geometry">
            <mxPoint x="50" y="-131" as="offset" />
          </mxGeometry>
        </mxCell>
        <mxCell id="9S8VT6qx1uZMwdPPaOd9-180" value="" style="endArrow=block;endFill=1;html=1;edgeStyle=orthogonalEdgeStyle;align=left;verticalAlign=top;rounded=0;exitX=1.006;exitY=0.738;exitDx=0;exitDy=0;exitPerimeter=0;" edge="1" parent="WIyWlLk6GJQsqaUBKTNV-1" source="zkfFHV4jXpPFQw0GAbJ--5" target="9S8VT6qx1uZMwdPPaOd9-106">
          <mxGeometry x="-1" relative="1" as="geometry">
            <mxPoint x="655.0000000000003" y="540.0260000000002" as="sourcePoint" />
            <mxPoint x="864" y="988" as="targetPoint" />
            <Array as="points">
              <mxPoint x="945" y="522" />
              <mxPoint x="945" y="910" />
              <mxPoint x="863" y="910" />
            </Array>
          </mxGeometry>
        </mxCell>
        <mxCell id="9S8VT6qx1uZMwdPPaOd9-181" value="uses for cell access" style="edgeLabel;html=1;align=center;verticalAlign=middle;resizable=0;points=[];" vertex="1" connectable="0" parent="9S8VT6qx1uZMwdPPaOd9-180">
          <mxGeometry x="-0.2367" relative="1" as="geometry">
            <mxPoint x="-35" y="365" as="offset" />
          </mxGeometry>
        </mxCell>
        <mxCell id="9S8VT6qx1uZMwdPPaOd9-182" value="" style="endArrow=block;endFill=1;html=1;edgeStyle=orthogonalEdgeStyle;align=left;verticalAlign=top;rounded=0;entryX=0.5;entryY=0;entryDx=0;entryDy=0;exitX=0.75;exitY=0;exitDx=0;exitDy=0;" edge="1" parent="WIyWlLk6GJQsqaUBKTNV-1" source="9S8VT6qx1uZMwdPPaOd9-88" target="9S8VT6qx1uZMwdPPaOd9-19">
          <mxGeometry x="-1" relative="1" as="geometry">
            <mxPoint x="827" y="420" as="sourcePoint" />
            <mxPoint x="1023" y="433" as="targetPoint" />
            <Array as="points">
              <mxPoint x="840" y="40" />
              <mxPoint x="640" y="40" />
            </Array>
          </mxGeometry>
        </mxCell>
        <mxCell id="9S8VT6qx1uZMwdPPaOd9-183" value="uses dimensions" style="edgeLabel;html=1;align=center;verticalAlign=middle;resizable=0;points=[];" vertex="1" connectable="0" parent="9S8VT6qx1uZMwdPPaOd9-182">
          <mxGeometry x="0.0068" y="-2" relative="1" as="geometry">
            <mxPoint as="offset" />
          </mxGeometry>
        </mxCell>
        <mxCell id="9S8VT6qx1uZMwdPPaOd9-186" value="" style="endArrow=block;endFill=1;html=1;edgeStyle=orthogonalEdgeStyle;align=left;verticalAlign=top;rounded=0;entryX=0.617;entryY=0.007;entryDx=0;entryDy=0;entryPerimeter=0;" edge="1" parent="WIyWlLk6GJQsqaUBKTNV-1" target="zkfFHV4jXpPFQw0GAbJ--17">
          <mxGeometry x="-1" relative="1" as="geometry">
            <mxPoint x="120" y="650" as="sourcePoint" />
            <mxPoint x="466" y="643" as="targetPoint" />
            <Array as="points">
              <mxPoint x="120" y="660" />
              <mxPoint x="525" y="660" />
            </Array>
          </mxGeometry>
        </mxCell>
        <mxCell id="9S8VT6qx1uZMwdPPaOd9-187" value="renders" style="edgeLabel;html=1;align=center;verticalAlign=middle;resizable=0;points=[];" vertex="1" connectable="0" parent="9S8VT6qx1uZMwdPPaOd9-186">
          <mxGeometry x="0.0068" y="-2" relative="1" as="geometry">
            <mxPoint as="offset" />
          </mxGeometry>
        </mxCell>
        <mxCell id="9S8VT6qx1uZMwdPPaOd9-188" value="" style="endArrow=block;endFill=1;html=1;edgeStyle=orthogonalEdgeStyle;align=left;verticalAlign=top;rounded=0;exitX=0.25;exitY=0;exitDx=0;exitDy=0;entryX=0.25;entryY=0;entryDx=0;entryDy=0;" edge="1" parent="WIyWlLk6GJQsqaUBKTNV-1" source="9S8VT6qx1uZMwdPPaOd9-46" target="9S8VT6qx1uZMwdPPaOd9-97">
          <mxGeometry x="-1" relative="1" as="geometry">
            <mxPoint x="90" y="340" as="sourcePoint" />
            <mxPoint x="490" y="260" as="targetPoint" />
            <Array as="points">
              <mxPoint x="70" y="410" />
              <mxPoint x="170" y="410" />
              <mxPoint x="170" y="120" />
              <mxPoint x="490" y="120" />
              <mxPoint x="490" y="300" />
              <mxPoint x="660" y="300" />
            </Array>
          </mxGeometry>
        </mxCell>
        <mxCell id="9S8VT6qx1uZMwdPPaOd9-189" value="checks status" style="edgeLabel;html=1;align=center;verticalAlign=middle;resizable=0;points=[];" vertex="1" connectable="0" parent="9S8VT6qx1uZMwdPPaOd9-188">
          <mxGeometry x="0.0068" y="-2" relative="1" as="geometry">
            <mxPoint as="offset" />
          </mxGeometry>
        </mxCell>
        <mxCell id="9S8VT6qx1uZMwdPPaOd9-190" value="" style="endArrow=block;endFill=1;html=1;edgeStyle=orthogonalEdgeStyle;align=left;verticalAlign=top;rounded=0;entryX=-0.003;entryY=0.945;entryDx=0;entryDy=0;exitX=0.75;exitY=0;exitDx=0;exitDy=0;entryPerimeter=0;" edge="1" parent="WIyWlLk6GJQsqaUBKTNV-1" source="9S8VT6qx1uZMwdPPaOd9-55" target="9S8VT6qx1uZMwdPPaOd9-127">
          <mxGeometry x="-1" relative="1" as="geometry">
            <mxPoint x="330" y="460" as="sourcePoint" />
            <mxPoint x="526" y="473" as="targetPoint" />
          </mxGeometry>
        </mxCell>
        <mxCell id="9S8VT6qx1uZMwdPPaOd9-191" value="action" style="edgeLabel;html=1;align=center;verticalAlign=middle;resizable=0;points=[];" vertex="1" connectable="0" parent="9S8VT6qx1uZMwdPPaOd9-190">
          <mxGeometry x="0.0068" y="-2" relative="1" as="geometry">
            <mxPoint as="offset" />
          </mxGeometry>
        </mxCell>
        <mxCell id="9S8VT6qx1uZMwdPPaOd9-193" value="" style="endArrow=block;endFill=1;html=1;edgeStyle=orthogonalEdgeStyle;align=left;verticalAlign=top;rounded=0;entryX=-0.017;entryY=-0.038;entryDx=0;entryDy=0;entryPerimeter=0;exitX=0.306;exitY=1.045;exitDx=0;exitDy=0;exitPerimeter=0;" edge="1" parent="WIyWlLk6GJQsqaUBKTNV-1" source="9S8VT6qx1uZMwdPPaOd9-59" target="9S8VT6qx1uZMwdPPaOd9-110">
          <mxGeometry x="-1" relative="1" as="geometry">
            <mxPoint x="273" y="620" as="sourcePoint" />
            <mxPoint x="640" y="1340" as="targetPoint" />
            <Array as="points">
              <mxPoint x="273" y="612" />
              <mxPoint x="273" y="630" />
              <mxPoint x="240" y="630" />
              <mxPoint x="240" y="680" />
              <mxPoint x="160" y="680" />
              <mxPoint x="160" y="950" />
              <mxPoint x="60" y="950" />
              <mxPoint x="60" y="1360" />
              <mxPoint x="640" y="1360" />
              <mxPoint x="640" y="1075" />
            </Array>
          </mxGeometry>
        </mxCell>
        <mxCell id="9S8VT6qx1uZMwdPPaOd9-194" value="create from pixels" style="edgeLabel;html=1;align=center;verticalAlign=middle;resizable=0;points=[];" vertex="1" connectable="0" parent="9S8VT6qx1uZMwdPPaOd9-193">
          <mxGeometry x="0.0068" y="-2" relative="1" as="geometry">
            <mxPoint x="22" as="offset" />
          </mxGeometry>
        </mxCell>
        <mxCell id="9S8VT6qx1uZMwdPPaOd9-196" value="Cell Factory" style="swimlane;fontStyle=1;align=center;verticalAlign=top;childLayout=stackLayout;horizontal=1;startSize=26;horizontalStack=0;resizeParent=1;resizeLast=0;collapsible=1;marginBottom=0;rounded=0;shadow=0;strokeWidth=1;" vertex="1" parent="WIyWlLk6GJQsqaUBKTNV-1">
          <mxGeometry x="970" y="622" width="210" height="218" as="geometry">
            <mxRectangle x="550" y="140" width="160" height="26" as="alternateBounds" />
          </mxGeometry>
        </mxCell>
        <mxCell id="9S8VT6qx1uZMwdPPaOd9-207" value="- prototype mine cell" style="text;align=left;verticalAlign=top;spacingLeft=4;spacingRight=4;overflow=hidden;rotatable=0;points=[[0,0.5],[1,0.5]];portConstraint=eastwest;" vertex="1" parent="9S8VT6qx1uZMwdPPaOd9-196">
          <mxGeometry y="26" width="210" height="30" as="geometry" />
        </mxCell>
        <mxCell id="9S8VT6qx1uZMwdPPaOd9-208" value="- prototype safe cell" style="text;align=left;verticalAlign=top;spacingLeft=4;spacingRight=4;overflow=hidden;rotatable=0;points=[[0,0.5],[1,0.5]];portConstraint=eastwest;" vertex="1" parent="9S8VT6qx1uZMwdPPaOd9-196">
          <mxGeometry y="56" width="210" height="30" as="geometry" />
        </mxCell>
        <mxCell id="9S8VT6qx1uZMwdPPaOd9-209" value="- prototype dangerous cell" style="text;align=left;verticalAlign=top;spacingLeft=4;spacingRight=4;overflow=hidden;rotatable=0;points=[[0,0.5],[1,0.5]];portConstraint=eastwest;" vertex="1" parent="9S8VT6qx1uZMwdPPaOd9-196">
          <mxGeometry y="86" width="210" height="30" as="geometry" />
        </mxCell>
        <mxCell id="9S8VT6qx1uZMwdPPaOd9-198" value="" style="line;html=1;strokeWidth=1;align=left;verticalAlign=middle;spacingTop=-1;spacingLeft=3;spacingRight=3;rotatable=0;labelPosition=right;points=[];portConstraint=eastwest;" vertex="1" parent="9S8VT6qx1uZMwdPPaOd9-196">
          <mxGeometry y="116" width="210" height="8" as="geometry" />
        </mxCell>
        <mxCell id="9S8VT6qx1uZMwdPPaOd9-199" value="+ create mine cell(Coordinate)" style="text;align=left;verticalAlign=top;spacingLeft=4;spacingRight=4;overflow=hidden;rotatable=0;points=[[0,0.5],[1,0.5]];portConstraint=eastwest;" vertex="1" parent="9S8VT6qx1uZMwdPPaOd9-196">
          <mxGeometry y="124" width="210" height="30" as="geometry" />
        </mxCell>
        <mxCell id="9S8VT6qx1uZMwdPPaOd9-200" value="+ create safe cell(Coordinate)" style="text;align=left;verticalAlign=top;spacingLeft=4;spacingRight=4;overflow=hidden;rotatable=0;points=[[0,0.5],[1,0.5]];portConstraint=eastwest;" vertex="1" parent="9S8VT6qx1uZMwdPPaOd9-196">
          <mxGeometry y="154" width="210" height="28" as="geometry" />
        </mxCell>
        <mxCell id="9S8VT6qx1uZMwdPPaOd9-201" value="+ create dangerous cell(Coordinate)" style="text;align=left;verticalAlign=top;spacingLeft=4;spacingRight=4;overflow=hidden;rotatable=0;points=[[0,0.5],[1,0.5]];portConstraint=eastwest;" vertex="1" parent="9S8VT6qx1uZMwdPPaOd9-196">
          <mxGeometry y="182" width="210" height="36" as="geometry" />
        </mxCell>
        <mxCell id="9S8VT6qx1uZMwdPPaOd9-202" value="" style="endArrow=open;html=1;endSize=12;startArrow=diamondThin;startSize=14;startFill=0;edgeStyle=orthogonalEdgeStyle;align=left;verticalAlign=bottom;rounded=0;exitX=1;exitY=0.5;exitDx=0;exitDy=0;entryX=0.5;entryY=0;entryDx=0;entryDy=0;" edge="1" parent="WIyWlLk6GJQsqaUBKTNV-1" source="9S8VT6qx1uZMwdPPaOd9-89" target="9S8VT6qx1uZMwdPPaOd9-196">
          <mxGeometry x="-1" y="3" relative="1" as="geometry">
            <mxPoint x="990" y="560" as="sourcePoint" />
            <mxPoint x="1150" y="560" as="targetPoint" />
          </mxGeometry>
        </mxCell>
        <mxCell id="9S8VT6qx1uZMwdPPaOd9-203" value="" style="endArrow=block;endFill=1;html=1;edgeStyle=orthogonalEdgeStyle;align=left;verticalAlign=top;rounded=0;entryX=1;entryY=0.5;entryDx=0;entryDy=0;exitX=0.5;exitY=1;exitDx=0;exitDy=0;" edge="1" parent="WIyWlLk6GJQsqaUBKTNV-1" source="9S8VT6qx1uZMwdPPaOd9-196" target="9S8VT6qx1uZMwdPPaOd9-107">
          <mxGeometry x="-1" relative="1" as="geometry">
            <mxPoint x="1196" y="840" as="sourcePoint" />
            <mxPoint x="1050" y="880" as="targetPoint" />
            <mxPoint as="offset" />
          </mxGeometry>
        </mxCell>
        <mxCell id="9S8VT6qx1uZMwdPPaOd9-204" value="uses" style="edgeLabel;html=1;align=center;verticalAlign=middle;resizable=0;points=[];" vertex="1" connectable="0" parent="9S8VT6qx1uZMwdPPaOd9-203">
          <mxGeometry x="0.0068" y="-2" relative="1" as="geometry">
            <mxPoint as="offset" />
          </mxGeometry>
        </mxCell>
        <mxCell id="9S8VT6qx1uZMwdPPaOd9-205" value="" style="endArrow=block;endFill=1;html=1;edgeStyle=orthogonalEdgeStyle;align=left;verticalAlign=top;rounded=0;entryX=0.25;entryY=0;entryDx=0;entryDy=0;exitX=0.67;exitY=1.006;exitDx=0;exitDy=0;exitPerimeter=0;" edge="1" parent="WIyWlLk6GJQsqaUBKTNV-1" source="9S8VT6qx1uZMwdPPaOd9-201" target="zkfFHV4jXpPFQw0GAbJ--6">
          <mxGeometry x="-1" relative="1" as="geometry">
            <mxPoint x="1110" y="850" as="sourcePoint" />
            <mxPoint x="230" y="700" as="targetPoint" />
            <mxPoint as="offset" />
            <Array as="points">
              <mxPoint x="1111" y="1406" />
              <mxPoint x="-40" y="1406" />
              <mxPoint x="-40" y="700" />
              <mxPoint x="220" y="700" />
            </Array>
          </mxGeometry>
        </mxCell>
        <mxCell id="9S8VT6qx1uZMwdPPaOd9-206" value="creates" style="edgeLabel;html=1;align=center;verticalAlign=middle;resizable=0;points=[];" vertex="1" connectable="0" parent="9S8VT6qx1uZMwdPPaOd9-205">
          <mxGeometry x="0.0068" y="-2" relative="1" as="geometry">
            <mxPoint x="-396" y="-312" as="offset" />
          </mxGeometry>
        </mxCell>
      </root>
    </mxGraphModel>
  </diagram>
</mxfile>
